# xmcd
#
# Track frame offsets: 
#        150
#        12142
#        25007
#        37015
#        48720
#        62067
#        74980
#        87982
#        99522
#        110915
#        123060
#        133700
#        144910
#        156327
#        169007
#        180605
#        189162
#        202347
#        214860
#        226010
#        237882
#        249740
#        262987
#        273997
#        287222
#        297010
#        309957
#        320660
#        332167
#
# Disc length: 4587 seconds
#
# Revision: 4
# Processed by: cddbd v1.5.2PL0 Copyright (c) Steve Scherf et al.
# Submitted via: ExactAudioCopy v1.1
#
DISCID=b311e91d
DTITLE=Kitty Wells - The Queen Of Country Music - Disc 2
DYEAR=1993
DGENRE=Country
TTITLE0=I Gave My Wedding Dress Away (mono)
TTITLE1=Cheatin's A Sin (mono)
TTITLE2=You'er Not Easy To Forget (mono)
TTITLE3=Satisfied, So Satisfied (mono)
TTITLE4=Kitty Wells and Red Foley - One By One (mono)
TTITLE5=Release Me (mono)
TTITLE6=After Dark (mono)
TTITLE7=(Don't Hang Around) He's Married To Me (mono)
TTITLE8=Thou Shalt Not Steal (mono)
TTITLE9=Lonely Side Of Town (mono)
TTITLE10=I Hope My Divorce Is Never Granted (mono)
TTITLE11=I'm In Love With You (mono)
TTITLE12=Kitty Wells and Red Foley - Make Believe (mono)
TTITLE13=Kitty Wells and Red Foley - You And Me (mono)
TTITLE14=Kitty Wells and Red Foley - As Long As I Live (mono)
TTITLE15=Kitty Wells and Red Foley - No One But You (mono)
TTITLE16=Makin' Believe (mono)
TTITLE17=I'd Rather Stay Home (mono)
TTITLE18=I Was Wrong (mono)
TTITLE19=There's Poison In Your Heart (mono)
TTITLE20=Kitty Wells and Roy Acuff - Goodbye Mr. Brown (mono)
TTITLE21=Kitty Wells and Roy Acuff - Mother, Hold Me Tight (mono)
TTITLE22=Searching (For Someone Else) (mono)
TTITLE23=Kitty Wells and Carol Sue Wright - How Far Is Heaven (mono)
TTITLE24=Dust On The Bible (mono)
TTITLE25=Beside You (mono)
TTITLE26=I'm Counting On You (mono)
TTITLE27=They Can't Take Your Love (mono)
TTITLE28=I'm Tired Of Pretending (mono)
EXTD=
EXTT0=
EXTT1=
EXTT2=
EXTT3=
EXTT4=
EXTT5=
EXTT6=
EXTT7=
EXTT8=
EXTT9=
EXTT10=
EXTT11=
EXTT12=
EXTT13=
EXTT14=
EXTT15=
EXTT16=
EXTT17=
EXTT18=
EXTT19=
EXTT20=
EXTT21=
EXTT22=
EXTT23=
EXTT24=
EXTT25=
EXTT26=
EXTT27=
EXTT28=
PLAYORDER=
